<svg t="1623734766450" class="icon" viewBox="0 0 1024 1024" version="1.1" xmlns="http://www.w3.org/2000/svg" p-id="3496" width="200" height="200"><path d="M687.503067 729.585371h0.2048H687.503067zM63.360439 995.006171h897.214171v-289.792H721.88021c-13.575314 0-24.619886 10.942171-24.619885 24.3712a10.049829 10.049829 0 0 1-0.219429 2.004115l-14.921143 70.114743a37.127314 37.127314 0 0 1-36.220343 29.0816H378.02101a37.127314 37.127314 0 0 1-36.220343-29.0816l-14.921142-70.114743a10.049829 10.049829 0 0 1-0.2048-2.004115c0-13.429029-11.044571-24.385829-24.619886-24.385828H63.360439v289.806628z m906.971428 19.324343H53.603182A9.698743 9.698743 0 0 1 43.845925 1004.690286V695.544686c0-5.339429 4.388571-9.654857 9.757257-9.654857h248.451657c23.976229 0 43.534629 19.017143 44.105143 42.613028l14.7456 69.193143a17.554286 17.554286 0 0 0 17.115428 13.765486h267.8784a17.554286 17.554286 0 0 0 17.130057-13.750857l14.7456-69.207772c0.570514-23.595886 20.128914-42.627657 44.105143-42.627657h248.451657c5.383314 0 9.742629 4.330057 9.742629 9.654857V1004.690286c0 5.354057-4.359314 9.654857-9.742629 9.654857z" p-id="3497" fill="#dbdbdb"></path><path d="M394.931639 908.068571a9.728 9.728 0 0 0-9.742629 9.654858c0 5.3248 4.388571 9.669486 9.742629 9.669485h234.057143a9.728 9.728 0 0 0 9.757257-9.654857c0-5.310171-4.388571-9.654857-9.757257-9.654857H394.931639z m234.057143 38.648686H394.931639c-16.120686 0-29.257143-13.0048-29.257143-28.9792s13.136457-28.9792 29.257143-28.9792h234.057143c16.135314 0 29.257143 13.0048 29.257143 28.964572a29.154743 29.154743 0 0 1-29.257143 28.993828zM208.797696 512h606.325029l17.729828-193.214171H191.067867L208.797696 512z m615.248457 19.309714H199.888896a9.698743 9.698743 0 0 1-9.713371-8.777143L170.675639 310.008686a9.552457 9.552457 0 0 1 2.516114-7.387429 9.8304 9.8304 0 0 1 7.197257-3.145143h663.157029c2.750171 0 5.339429 1.155657 7.197257 3.145143 1.857829 2.004114 2.779429 4.681143 2.516114 7.387429L833.759525 522.532571c-0.438857 4.973714-4.666514 8.777143-9.713372 8.777143z" p-id="3498" fill="#dbdbdb"></path><path d="M883.233353 685.889829h73.654857l-107.9296-328.996572-15.023543 163.796114 49.298286 165.200458z m87.098514 19.309714h-94.398171a9.757257 9.757257 0 0 1-9.362286-6.904686l-51.887543-173.889828a9.845029 9.845029 0 0 1-0.351085-3.613258l19.499885-212.523885a9.698743 9.698743 0 0 1 8.630858-8.733257 9.874286 9.874286 0 0 1 10.357028 6.626742l126.7712 386.413715c0.980114 2.925714 0.468114 6.144-1.375086 8.645485a9.728 9.728 0 0 1-7.8848 3.9936zM67.03221 685.889829h73.669486l49.298286-165.200458-15.023543-163.796114-107.944229 328.996572z m80.969143 19.309714H53.61781a9.742629 9.742629 0 0 1-7.899428-3.978972 9.552457 9.552457 0 0 1-1.389715-8.645485L171.114496 306.161371a9.874286 9.874286 0 0 1 10.357029-6.626742 9.713371 9.713371 0 0 1 8.630857 8.733257L209.616896 520.777143a9.845029 9.845029 0 0 1-0.380343 3.613257L157.363639 698.294857a9.757257 9.757257 0 0 1-9.362286 6.919314zM326.674725 212.523886a9.771886 9.771886 0 0 1-8.455315-4.827429l-78.014171-133.851428a9.581714 9.581714 0 0 1 3.569371-13.165715 9.757257 9.757257 0 0 1 13.312 3.510857l78.0288 133.851429a9.713371 9.713371 0 0 1-8.440685 14.482286M697.260325 212.523886a9.713371 9.713371 0 0 1-8.440686-14.482286l78.014171-133.851429a9.801143 9.801143 0 0 1 13.312-3.510857c4.681143 2.633143 6.275657 8.543086 3.584 13.165715l-78.0288 133.851428a9.771886 9.771886 0 0 1-8.440685 4.827429M511.96021 173.889829a9.713371 9.713371 0 0 1-9.742628-9.654858V9.654857c0-5.3248 4.359314-9.654857 9.742628-9.654857 5.383314 0 9.757257 4.330057 9.757257 9.654857v154.565486c0 5.339429-4.373943 9.654857-9.757257 9.654857" p-id="3499" fill="#dbdbdb"></path></svg>